<?xml version="1.0" encoding="utf-8"?>
<!-- Generator: Adobe Illustrator 16.0.0, SVG Export Plug-In . SVG Version: 6.00 Build 0)  -->
<!DOCTYPE svg PUBLIC "-//W3C//DTD SVG 1.1//EN" "http://www.w3.org/Graphics/SVG/1.1/DTD/svg11.dtd">
<svg version="1.1" id="Capa_1" xmlns="http://www.w3.org/2000/svg" xmlns:xlink="http://www.w3.org/1999/xlink" x="0px" y="0px"
	 width="436.25px" height="420.25px" viewBox="0 0 436.25 420.25" enable-background="new 0 0 436.25 420.25" xml:space="preserve">
<g>
	<path d="M64.523,69.324V18.125c0-7.074,5.727-12.801,12.801-12.801s12.801,5.727,12.801,12.801v51.199
		c0,7.074-5.727,12.801-12.801,12.801S64.523,76.398,64.523,69.324L64.523,69.324z M282.125,82.125
		c7.074,0,12.801-5.727,12.801-12.801V18.125c0-7.074-5.727-12.801-12.801-12.801s-12.801,5.727-12.801,12.801v51.199
		C269.324,76.398,275.051,82.125,282.125,82.125L282.125,82.125z M422.926,312.523c0,56.551-45.852,102.402-102.402,102.402
		c-56.547,0-102.398-45.852-102.398-102.402c0-56.547,45.852-102.398,102.398-102.398
		C377.074,210.125,422.926,255.977,422.926,312.523L422.926,312.523z M397.324,312.523c0-42.352-34.449-76.801-76.801-76.801
		c-42.348,0-76.801,34.453-76.801,76.801c0,42.352,34.453,76.801,76.801,76.801C362.875,389.324,397.324,354.875,397.324,312.523
		L397.324,312.523z M115.722,158.926H64.523v51.199h51.199V158.926z M64.523,286.926h51.199v-51.203H64.523V286.926z
		 M141.324,210.125h51.199v-51.199h-51.199V210.125z M141.324,286.926h51.199v-51.203h-51.199V286.926z M38.926,309.977V133.324
		h281.597v51.199h25.602V84.676c0-15.551-12.402-28.153-27.727-28.153h-10.676v12.801c0,14.102-11.473,25.602-25.598,25.602
		s-25.602-11.5-25.602-25.602V56.523H102.926v12.801c0,14.102-11.477,25.602-25.602,25.602s-25.602-11.5-25.602-25.602V56.523
		h-10.66c-15.324,0-27.738,12.602-27.738,28.153v225.3c0,15.5,12.414,28.148,27.738,28.148h151.461v-25.602H41.062
		C39.898,312.523,38.926,311.324,38.926,309.977L38.926,309.977z M269.324,210.125v-51.199h-51.199v51.199H269.324z
		 M358.926,312.523h-38.402v-38.398c0-7.074-5.723-12.801-12.801-12.801c-7.074,0-12.797,5.727-12.797,12.801v51.199
		c0,7.074,5.723,12.801,12.797,12.801h51.203c7.074,0,12.797-5.727,12.797-12.801S366,312.523,358.926,312.523L358.926,312.523z
		 M358.926,312.523"/>
</g>
</svg>
