<?xml version="1.0" encoding="utf-8"?>
<!-- Generator: Adobe Illustrator 16.0.0, SVG Export Plug-In . SVG Version: 6.00 Build 0)  -->
<!DOCTYPE svg PUBLIC "-//W3C//DTD SVG 1.1//EN" "http://www.w3.org/Graphics/SVG/1.1/DTD/svg11.dtd">
<svg version="1.1" id="Capa_1" xmlns="http://www.w3.org/2000/svg" xmlns:xlink="http://www.w3.org/1999/xlink" x="0px" y="0px"
	 width="39.685px" height="56.693px" viewBox="0 0 39.685 56.693" enable-background="new 0 0 39.685 56.693" xml:space="preserve">
<path d="M19.844,24.302c6.331,0,11.458-5.125,11.458-11.456c0-6.326-5.127-11.452-11.458-11.452
	c-6.326,0-11.457,5.126-11.457,11.457C8.388,19.176,13.519,24.302,19.844,24.302L19.844,24.302z M24.704,25.083h-9.719
	c-8.088,0-14.67,6.581-14.67,14.669v11.891l0.033,0.186l0.819,0.258c7.715,2.408,14.423,3.213,19.942,3.213
	c10.783,0,17.027-3.072,17.418-3.27l0.762-0.387h0.082V39.752C39.374,31.665,32.792,25.083,24.704,25.083L24.704,25.083z"/>
</svg>
