<?xml version="1.0" encoding="utf-8"?>
<!-- Generator: Adobe Illustrator 16.0.0, SVG Export Plug-In . SVG Version: 6.00 Build 0)  -->
<!DOCTYPE svg PUBLIC "-//W3C//DTD SVG 1.1//EN" "http://www.w3.org/Graphics/SVG/1.1/DTD/svg11.dtd">
<svg version="1.1" id="Capa_1" xmlns="http://www.w3.org/2000/svg" xmlns:xlink="http://www.w3.org/1999/xlink" x="0px" y="0px"
	 width="141.73px" height="255.121px" viewBox="0 0 141.73 255.121" enable-background="new 0 0 141.73 255.121"
	 xml:space="preserve">
<g>
	<g>
		<path d="M129.273,73.581H12.457C5.597,73.581,0,79.171,0,86.038v83.045c0,6.843,5.572,12.457,12.457,12.457h116.817
			c6.844,0,12.457-5.571,12.457-12.457V86.038C141.73,79.194,136.158,73.581,129.273,73.581z M127.554,81.885L71.129,138.31
			L14.217,81.885H127.554z M8.305,167.363V87.717l39.994,39.651L8.305,167.363z M14.177,173.235l40.02-40.02l14.022,13.902
			c1.624,1.609,4.242,1.604,5.859-0.013l13.673-13.673l39.803,39.803H14.177z M133.426,167.363L93.623,127.56l39.803-39.803V167.363
			z"/>
	</g>
</g>
</svg>
