<?xml version="1.0" encoding="utf-8"?>
<!-- Generator: Adobe Illustrator 16.0.0, SVG Export Plug-In . SVG Version: 6.00 Build 0)  -->
<!DOCTYPE svg PUBLIC "-//W3C//DTD SVG 1.1//EN" "http://www.w3.org/Graphics/SVG/1.1/DTD/svg11.dtd">
<svg version="1.1" id="Capa_1" xmlns="http://www.w3.org/2000/svg" xmlns:xlink="http://www.w3.org/1999/xlink" x="0px" y="0px"
	 width="317.083px" height="342.992px" viewBox="0 0 317.083 342.992" enable-background="new 0 0 317.083 342.992"
	 xml:space="preserve">
<g>
	<path d="M305.87,120.717l-8.873-1.507c-0.908-2.773-2.023-5.469-3.324-8.032l5.228-7.313c2.886-4.056,2.425-9.531-1.091-13.015
		l-8.67-8.67c-1.916-1.915-4.451-2.97-7.141-2.97c-2.119,0-4.143,0.651-5.846,1.879l-7.342,5.229
		c-2.738-1.391-5.551-2.549-8.382-3.451l-1.476-8.746c-0.821-4.889-5.016-8.438-9.973-8.438h-12.248
		c-4.959,0-9.154,3.549-9.975,8.435l-1.533,8.993c-2.738,0.906-5.424,2.039-8.008,3.375l-7.246-5.219
		c-1.711-1.231-3.744-1.882-5.881-1.882c-2.722,0-5.262,1.059-7.14,2.969l-8.698,8.671c-3.508,3.506-3.968,8.979-1.094,13.015
		l5.289,7.432c-1.291,2.573-2.391,5.277-3.277,8.061l-8.745,1.474c-4.89,0.821-8.438,5.017-8.438,9.976v12.247
		c0,4.958,3.549,9.153,8.435,9.974l8.994,1.534c0.907,2.739,2.038,5.426,3.373,8.008l-5.192,7.222
		c-2.888,4.056-2.427,9.531,1.092,13.015l8.67,8.67c1.914,1.915,4.45,2.97,7.141,2.97c2.115,0,4.139-0.65,5.844-1.877l7.432-5.289
		c2.443,1.226,5.037,2.292,7.736,3.18l1.479,8.874c0.822,4.889,5.017,8.438,9.975,8.438h12.277c4.958,0,9.153-3.549,9.975-8.436
		l1.504-8.874c2.771-0.907,5.465-2.022,8.032-3.326l7.309,5.226c1.714,1.231,3.747,1.883,5.88,1.883
		c2.688,0,5.225-1.055,7.141-2.971l8.67-8.67c3.504-3.505,3.963-8.978,1.09-13.014l-5.229-7.345c1.35-2.67,2.467-5.363,3.33-8.029
		l8.867-1.478c4.89-0.819,8.439-5.014,8.439-9.974V130.71C314.315,125.744,310.79,121.541,305.87,120.717z M287.499,148.235
		c-1.082,4.187-2.73,8.155-4.903,11.805c-1.08,1.84-0.985,4.155,0.244,5.903l6.828,9.619l-7.802,7.8l-9.582-6.822
		c-1.693-1.219-4.084-1.321-5.918-0.243c-3.648,2.171-7.619,3.818-11.785,4.895c-2.103,0.523-3.674,2.238-3.997,4.346l-1.963,11.609
		h-11.007l-1.934-11.612c-0.362-2.114-1.929-3.818-3.984-4.34c-3.991-1.032-7.88-2.626-11.561-4.738
		c-1.813-1.037-4.267-0.894-5.86,0.284l-9.675,6.883l-7.799-7.797l6.8-9.537c1.233-1.75,1.328-4.077,0.233-5.941
		c-2.231-3.719-3.898-7.677-4.959-11.788c-0.563-2.047-2.265-3.602-4.339-3.96l-11.694-1.99V131.6l11.521-1.934
		c2.136-0.363,3.854-1.942,4.374-4.021c1.062-4.22,2.681-8.198,4.813-11.827c1.078-1.838,0.969-4.146-0.274-5.875l-6.884-9.677
		l7.8-7.799l9.535,6.8c1.724,1.214,4.095,1.32,5.942,0.234c3.719-2.23,7.676-3.897,11.785-4.96c2.05-0.562,3.604-2.263,3.961-4.336
		l1.992-11.698h11.008l1.935,11.522c0.363,2.139,1.942,3.855,4.021,4.374c4.249,1.068,8.316,2.737,12.087,4.959
		c1.816,1.067,4.164,0.98,5.912-0.249l9.527-6.848l7.798,7.798l-6.821,9.58c-1.246,1.729-1.345,4.05-0.246,5.922
		c2.165,3.636,3.813,7.604,4.896,11.785c0.524,2.101,2.238,3.67,4.347,3.995l11.609,1.961l-0.029,11.008l-11.609,1.936
		C289.727,144.608,288.022,146.175,287.499,148.235z"/>
	<path d="M243.131,105.248c-17.397,0-31.551,14.153-31.551,31.551s14.153,31.551,31.551,31.551
		c17.398,0,31.553-14.153,31.553-31.551S260.53,105.248,243.131,105.248z M243.131,157.495c-11.412,0-20.695-9.284-20.695-20.696
		c0-11.413,9.283-20.698,20.695-20.698s20.697,9.285,20.697,20.698C263.829,148.211,254.543,157.495,243.131,157.495z"/>
</g>
<g>
	<path d="M255.245,213.867c-1.874,0.698-3.898,1.077-6.004,1.077h-12.277c-2.002,0-3.926-0.351-5.719-0.983v24.1h-76.443v79.979
		H24.578l0.001-293.088h206.666v34.639c1.729-0.582,3.571-0.909,5.488-0.909h12.248c2.205,0,4.316,0.425,6.264,1.187V0.952H0.579
		v247.787H0.578v93.301h168.667l0.355-0.005c29.15-0.863,54.564-11.492,69.727-29.161c15.746-18.353,15.947-57.117,15.918-61.397
		V213.867z M221.112,297.246c-4.535,5.285-17.156,16.881-42.311,20.036v-55.222h51.99
		C229.784,274.313,226.977,290.41,221.112,297.246z"/>
	<rect x="43.788" y="78.063" width="69" height="13"/>
	<path d="M183.738,187.93c-3.28-3.248-4.98-7.526-5.034-11.861H43.788v13h141.089L183.738,187.93z"/>
	<circle cx="73.724" cy="257.959" r="24.166"/>
	<path d="M43.788,163.063h140.15l0.762-1.06c-0.15-0.348-0.297-0.697-0.441-1.047l-5.014-0.855
		c-5.869-0.985-10.588-4.865-12.832-10.038H43.788V163.063z"/>
	<rect x="43.788" y="51.313" width="69" height="13"/>
	<path d="M43.788,136.813h121.199v-5.833c0-2.551,0.562-4.979,1.566-7.167H43.788V136.813z"/>
</g>
</svg>
