<?xml version="1.0" encoding="utf-8"?>
<!-- Generator: Adobe Illustrator 16.0.0, SVG Export Plug-In . SVG Version: 6.00 Build 0)  -->
<!DOCTYPE svg PUBLIC "-//W3C//DTD SVG 1.1//EN" "http://www.w3.org/Graphics/SVG/1.1/DTD/svg11.dtd">
<svg version="1.1" id="Capa_1" xmlns="http://www.w3.org/2000/svg" xmlns:xlink="http://www.w3.org/1999/xlink" x="0px" y="0px"
	 width="316.09px" height="344.834px" viewBox="0 0 316.09 344.834" enable-background="new 0 0 316.09 344.834"
	 xml:space="preserve">
<g>
	<g>
		<path d="M96.321,261.287v-15.174c-9.855-0.313-19.71-3.129-25.342-6.883l4.224-14.705c6.101,3.598,14.861,6.883,24.403,6.883
			c9.855,0,16.582-4.85,16.582-12.357c0-7.041-5.475-11.576-17.051-15.801c-16.425-5.945-27.063-13.453-27.063-28.002
			c0-13.453,9.386-23.777,25.186-26.594v-15.33h12.827v14.548c9.855,0.313,16.582,2.658,21.588,5.162l-4.224,14.393
			c-3.754-1.721-10.638-5.32-21.275-5.32c-10.95,0-14.861,5.633-14.861,10.951c0,6.414,5.632,10.012,18.929,15.33
			c17.521,6.57,25.342,15.018,25.342,28.939c0,13.297-9.23,25.029-26.438,27.846v16.113H96.321z"/>
	</g>
	<path d="M249.311,265.158h-12.277c-1.591,0-3.131-0.229-4.594-0.646v54.449H25.772V105.853h76.444V25.874h130.223v84.601
		c1.394-0.376,2.856-0.578,4.363-0.578h12.248c2.646,0,5.154,0.624,7.389,1.73V1.874H87.772l-0.354,0.005
		C58.267,2.742,32.853,13.37,17.691,31.04C1.945,49.392,1.744,88.157,1.772,92.437v250.524h254.667v-79.396
		C254.272,264.59,251.853,265.158,249.311,265.158z M35.906,46.667c4.535-5.286,17.155-16.882,42.311-20.036v55.222h-51.99
		C27.233,69.6,30.04,53.503,35.906,46.667z"/>
	<g>
		<path d="M305.939,171.43l-8.873-1.506c-0.908-2.773-2.023-5.469-3.324-8.033l5.229-7.313c2.885-4.057,2.424-9.531-1.092-13.015
			l-8.67-8.67c-1.916-1.915-4.451-2.97-7.141-2.97c-2.119,0-4.143,0.651-5.846,1.879l-7.342,5.229
			c-2.738-1.391-5.551-2.549-8.381-3.451l-1.477-8.746c-0.82-4.889-5.016-8.438-9.973-8.438h-12.248
			c-4.959,0-9.154,3.549-9.975,8.435l-1.533,8.993c-2.738,0.906-5.424,2.039-8.008,3.375l-7.246-5.219
			c-1.711-1.231-3.744-1.882-5.881-1.882c-2.722,0-5.261,1.059-7.14,2.969l-8.697,8.671c-3.508,3.506-3.969,8.979-1.094,13.014
			l5.289,7.432c-1.291,2.574-2.391,5.277-3.277,8.061l-8.746,1.475c-4.889,0.82-8.438,5.016-8.438,9.975v12.248
			c0,4.957,3.549,9.152,8.434,9.973l8.994,1.535c0.908,2.738,2.039,5.426,3.373,8.008l-5.191,7.221
			c-2.889,4.057-2.428,9.531,1.092,13.016l8.67,8.67c1.914,1.914,4.449,2.969,7.14,2.969c2.115,0,4.139-0.65,5.844-1.877
			l7.432-5.289c2.443,1.227,5.037,2.293,7.736,3.18l1.479,8.875c0.822,4.889,5.018,8.438,9.975,8.438h12.277
			c4.959,0,9.154-3.549,9.975-8.436l1.504-8.875c2.771-0.906,5.465-2.021,8.033-3.326l7.309,5.227
			c1.713,1.23,3.746,1.883,5.879,1.883c2.689,0,5.225-1.055,7.141-2.971l8.67-8.67c3.504-3.506,3.963-8.979,1.09-13.014
			l-5.229-7.346c1.35-2.67,2.467-5.363,3.33-8.029l8.867-1.477c4.891-0.82,8.439-5.014,8.439-9.975v-12.227
			C314.385,176.457,310.859,172.254,305.939,171.43z M287.568,198.949c-1.082,4.186-2.73,8.154-4.902,11.805
			c-1.08,1.84-0.986,4.154,0.244,5.902l6.828,9.619l-7.803,7.801l-9.582-6.822c-1.693-1.219-4.084-1.322-5.918-0.244
			c-3.648,2.172-7.619,3.818-11.785,4.895c-2.102,0.523-3.674,2.238-3.996,4.346l-1.963,11.609h-11.008l-1.934-11.611
			c-0.361-2.115-1.928-3.818-3.984-4.34c-3.99-1.033-7.879-2.627-11.561-4.738c-1.813-1.037-4.266-0.895-5.859,0.283l-9.676,6.883
			l-7.798-7.797l6.8-9.537c1.232-1.75,1.328-4.076,0.232-5.941c-2.231-3.719-3.897-7.676-4.958-11.787
			c-0.563-2.047-2.266-3.602-4.34-3.961l-11.693-1.99v-11.01l11.521-1.934c2.135-0.363,3.854-1.941,4.373-4.02
			c1.063-4.221,2.682-8.199,4.813-11.828c1.078-1.838,0.969-4.146-0.273-5.875l-6.884-9.676l7.8-7.799l9.535,6.799
			c1.723,1.215,4.094,1.32,5.941,0.234c3.719-2.23,7.676-3.896,11.785-4.959c2.051-0.562,3.605-2.263,3.961-4.336l1.992-11.698
			h11.008l1.936,11.522c0.363,2.139,1.941,3.855,4.021,4.374c4.248,1.068,8.316,2.738,12.086,4.958
			c1.816,1.068,4.164,0.98,5.912-0.248l9.527-6.848l7.799,7.797l-6.822,9.58c-1.246,1.729-1.344,4.051-0.246,5.922
			c2.166,3.637,3.814,7.605,4.896,11.785c0.523,2.102,2.238,3.67,4.346,3.996l11.609,1.961l-0.029,11.008l-11.609,1.936
			C289.797,195.322,288.092,196.889,287.568,198.949z"/>
		<path d="M243.201,155.961c-17.396,0-31.551,14.154-31.551,31.551c0,17.398,14.154,31.551,31.551,31.551
			c17.398,0,31.553-14.152,31.553-31.551C274.754,170.115,260.6,155.961,243.201,155.961z M243.201,208.209
			c-11.412,0-20.695-9.285-20.695-20.697s9.283-20.697,20.695-20.697s20.697,9.285,20.697,20.697S254.613,208.209,243.201,208.209z"
			/>
	</g>
</g>
</svg>
