<?xml version="1.0" encoding="utf-8"?>
<!-- Generator: Adobe Illustrator 16.0.0, SVG Export Plug-In . SVG Version: 6.00 Build 0)  -->
<!DOCTYPE svg PUBLIC "-//W3C//DTD SVG 1.1//EN" "http://www.w3.org/Graphics/SVG/1.1/DTD/svg11.dtd">
<svg version="1.1" id="Capa_1" xmlns="http://www.w3.org/2000/svg" xmlns:xlink="http://www.w3.org/1999/xlink" x="0px" y="0px"
	 width="328.477px" height="342.992px" viewBox="0 0 328.477 342.992" enable-background="new 0 0 328.477 342.992"
	 xml:space="preserve">
<g>
	<g>
		<path d="M87.856,56.917c-2.564,0-4.644,2.079-4.644,4.644v8.353c-21.375,2.321-38.064,20.477-38.064,42.458
			c0,23.549,19.159,42.708,42.708,42.708c21.981,0,40.137-16.689,42.458-38.064h8.353c2.563,0,4.644-2.079,4.644-4.643
			C143.31,81.794,118.434,56.917,87.856,56.917z M87.856,145.793c-18.429,0-33.421-14.994-33.421-33.421
			c0-16.853,12.539-30.833,28.777-33.1v33.1c0,2.564,2.08,4.643,4.644,4.643h33.099C118.688,133.254,104.708,145.793,87.856,145.793
			z M92.5,107.728L92.5,107.728V66.437c21.755,2.183,39.107,19.536,41.292,41.292H92.5z"/>
	</g>
</g>
<path d="M27.286,318.992L27.285,25.904h130.223v79.979h76.443v82.446h24V92.468c0.028-4.28-0.172-43.045-15.918-61.397
	c-15.162-17.669-40.576-28.298-69.728-29.161l-0.354-0.005H3.285v93.301h0.001v247.787h312.96v-23.96L27.286,318.992z
	 M181.506,26.662c25.156,3.155,37.777,14.751,42.312,20.036c5.867,6.836,8.673,22.934,9.679,35.186h-51.99V26.662z"/>
<g>
	<path d="M133.674,342.992H79.703v-68.024h53.971V342.992z M90.703,331.992h31.971v-46.024H90.703V331.992z"/>
</g>
<g>
	<path d="M195.811,342.992H141.84V236.668h53.971V342.992z M152.84,331.992h31.971v-84.324H152.84V331.992z"/>
</g>
<g>
	<path d="M257.897,342.992h-53.971v-135.75h53.971V342.992z M214.927,331.992h31.971v-113.75h-31.971V331.992z"/>
</g>
<g>
	<path d="M320.006,342.992h-53.971V175.948h53.971V342.992z M277.035,331.992h31.971V186.948h-31.971V331.992z"/>
</g>
<rect x="45.147" y="175.948" width="150.663" height="13.548"/>
<rect x="45.147" y="200.468" width="150.663" height="13.548"/>
</svg>
