<?xml version="1.0" encoding="utf-8"?>
<!-- Generator: Adobe Illustrator 16.0.0, SVG Export Plug-In . SVG Version: 6.00 Build 0)  -->
<!DOCTYPE svg PUBLIC "-//W3C//DTD SVG 1.1//EN" "http://www.w3.org/Graphics/SVG/1.1/DTD/svg11.dtd">
<svg version="1.1" id="Capa_1" xmlns="http://www.w3.org/2000/svg" xmlns:xlink="http://www.w3.org/1999/xlink" x="0px" y="0px"
	 width="257.953px" height="342.992px" viewBox="0 0 257.953 342.992" enable-background="new 0 0 257.953 342.992"
	 xml:space="preserve">
<g>
	<path d="M256.309,251.477V0.952H1.643v247.787H1.642v93.301h168.667l0.354-0.005c29.151-0.863,54.565-11.492,69.727-29.161
		C256.136,294.521,256.337,255.757,256.309,251.477z M222.175,297.246c-4.535,5.285-17.155,16.881-42.311,20.036v-55.222h51.99
		C230.848,274.313,228.042,290.41,222.175,297.246z M232.309,238.061h-76.444v79.979H25.642l0.001-293.088h206.666V238.061z"/>
	<g>
		<rect x="44.852" y="51.313" width="69" height="13"/>
		<rect x="44.852" y="78.063" width="69" height="13"/>
		<rect x="44.852" y="123.813" width="168.25" height="13"/>
		<rect x="44.852" y="150.063" width="168.25" height="13"/>
		<rect x="44.852" y="176.068" width="168.25" height="13"/>
	</g>
	<circle cx="74.789" cy="257.959" r="24.167"/>
</g>
</svg>
