<?xml version="1.0" encoding="utf-8"?>
<!-- Generator: Adobe Illustrator 16.0.0, SVG Export Plug-In . SVG Version: 6.00 Build 0)  -->
<!DOCTYPE svg PUBLIC "-//W3C//DTD SVG 1.1//EN" "http://www.w3.org/Graphics/SVG/1.1/DTD/svg11.dtd">
<svg version="1.1" id="Capa_1" xmlns="http://www.w3.org/2000/svg" xmlns:xlink="http://www.w3.org/1999/xlink" x="0px" y="0px"
	 width="64.771px" height="54.051px" viewBox="0 0 64.771 54.051" enable-background="new 0 0 64.771 54.051" xml:space="preserve">
<path d="M39.017,9.31c2.965,1.86,5.043,5.004,5.422,8.657c1.207,0.562,2.551,0.886,3.973,0.886c5.191,0,9.402-4.207,9.402-9.398
	c0-5.195-4.211-9.402-9.402-9.402C43.267,0.053,39.095,4.185,39.017,9.31L39.017,9.31z M32.856,28.559
	c5.195,0,9.402-4.207,9.402-9.401c0-5.191-4.207-9.398-9.402-9.398c-5.191,0-9.402,4.207-9.402,9.402
	C23.454,24.353,27.665,28.559,32.856,28.559L32.856,28.559z M36.845,29.201h-7.977c-6.638,0-12.039,5.4-12.039,12.039v9.758
	l0.026,0.152l0.672,0.211c6.332,1.977,11.837,2.637,16.366,2.637c8.85,0,13.975-2.521,14.295-2.684l0.625-0.316h0.066V41.24
	C48.884,34.602,43.481,29.201,36.845,29.201L36.845,29.201z M52.399,19.498h-7.914c-0.086,3.164-1.438,6.019-3.578,8.07
	c5.902,1.754,10.219,7.223,10.219,13.688v3.004c7.816-0.287,12.32-2.5,12.617-2.648l0.625-0.32h0.07v-9.758
	C64.438,24.896,59.036,19.498,52.399,19.498L52.399,19.498z M16.359,18.856c1.841,0,3.552-0.539,5-1.453
	c0.461-3.004,2.075-5.633,4.375-7.422c0.009-0.175,0.028-0.347,0.028-0.527c0-5.191-4.211-9.402-9.403-9.402
	c-5.19,0-9.401,4.211-9.401,9.402S11.169,18.856,16.359,18.856L16.359,18.856z M24.806,27.568c-2.129-2.043-3.477-4.879-3.575-8.027
	c-0.293-0.02-0.586-0.043-0.882-0.043h-7.977c-6.642,0-12.039,5.398-12.039,12.036v9.758l0.022,0.152l0.672,0.211
	c5.082,1.586,9.617,2.316,13.56,2.547v-2.945C14.587,34.791,18.902,29.322,24.806,27.568L24.806,27.568z M24.806,27.568"/>
</svg>
